<svg viewBox="0 0 64 64" xmlns="http://www.w3.org/2000/svg">
  <path fill-rule="evenodd" clip-rule="evenodd"
    d="M31.416 45.416C31.2302 45.6022 31.0095 45.75 30.7665 45.8508C30.5235 45.9517 30.263 46.0036 30 46.0036C29.7369 46.0036 29.4764 45.9517 29.2334 45.8508C28.9905 45.75 28.7697 45.6022 28.584 45.416L16.584 33.416C16.3977 33.2302 16.2499 33.0095 16.1491 32.7665C16.0483 32.5236 15.9964 32.2631 15.9964 32C15.9964 31.7369 16.0483 31.4764 16.1491 31.2335C16.2499 30.9905 16.3977 30.7698 16.584 30.584L28.584 18.584C28.9595 18.2085 29.4689 17.9975 30 17.9975C30.5311 17.9975 31.0404 18.2085 31.416 18.584C31.7915 18.9596 32.0025 19.4689 32.0025 20C32.0025 20.5311 31.7915 21.0405 31.416 21.416L20.828 32L31.416 42.584C31.6022 42.7698 31.75 42.9905 31.8508 43.2335C31.9516 43.4764 32.0035 43.7369 32.0035 44C32.0035 44.2631 31.9516 44.5236 31.8508 44.7665C31.75 45.0095 31.6022 45.2302 31.416 45.416Z"
    fill="#4A4A4A" />
  <path fill-rule="evenodd" clip-rule="evenodd"
    d="M48 32C48 32.5304 47.7893 33.0391 47.4142 33.4142C47.0391 33.7893 46.5304 34 46 34H20C19.4696 34 18.9609 33.7893 18.5858 33.4142C18.2107 33.0391 18 32.5304 18 32C18 31.4696 18.2107 30.9609 18.5858 30.5858C18.9609 30.2107 19.4696 30 20 30L46 30C46.5304 30 47.0391 30.2107 47.4142 30.5858C47.7893 30.9609 48 31.4696 48 32Z"
    fill="#4A4A4A" />
</svg>