<svg xmlns="http://www.w3.org/2000/svg" viewBox="0 0 24 24">
  <path fill-rule="evenodd" clip-rule="evenodd"
    d="M12.219 6.969C12.2887 6.89916 12.3714 6.84374 12.4625 6.80593C12.5537 6.76812 12.6513 6.74866 12.75 6.74866C12.8486 6.74866 12.9463 6.76812 13.0374 6.80593C13.1286 6.84374 13.2113 6.89916 13.281 6.969L17.781 11.469C17.8508 11.5387 17.9063 11.6214 17.9441 11.7126C17.9819 11.8037 18.0013 11.9013 18.0013 12C18.0013 12.0987 17.9819 12.1963 17.9441 12.2875C17.9063 12.3786 17.8508 12.4613 17.781 12.531L13.281 17.031C13.1402 17.1718 12.9492 17.2509 12.75 17.2509C12.5508 17.2509 12.3598 17.1718 12.219 17.031C12.0782 16.8902 11.999 16.6992 11.999 16.5C11.999 16.3008 12.0782 16.1098 12.219 15.969L16.1895 12L12.219 8.031C12.1492 7.96133 12.0937 7.87857 12.0559 7.78745C12.0181 7.69633 11.9987 7.59865 11.9987 7.5C11.9987 7.40135 12.0181 7.30367 12.0559 7.21255C12.0937 7.12143 12.1492 7.03867 12.219 6.969Z"
    fill="#4A4A4A" />
  <path fill-rule="evenodd" clip-rule="evenodd"
    d="M6 12C6 11.8011 6.07902 11.6103 6.21967 11.4697C6.36032 11.329 6.55109 11.25 6.75 11.25H16.5C16.6989 11.25 16.8897 11.329 17.0303 11.4697C17.171 11.6103 17.25 11.8011 17.25 12C17.25 12.1989 17.171 12.3897 17.0303 12.5303C16.8897 12.671 16.6989 12.75 16.5 12.75H6.75C6.55109 12.75 6.36032 12.671 6.21967 12.5303C6.07902 12.3897 6 12.1989 6 12Z"
    fill="#4A4A4A" />
</svg>